<?xml version="1.0" encoding="utf-8"?>
<!-- Generator: Adobe Illustrator 24.3.0, SVG Export Plug-In . SVG Version: 6.00 Build 0)  -->
<svg version="1.1" id="Layer_1" xmlns="http://www.w3.org/2000/svg" xmlns:xlink="http://www.w3.org/1999/xlink" x="0px" y="0px"
	 viewBox="0 0 174 26" style="enable-background:new 0 0 174 26;" xml:space="preserve">
<style type="text/css">
	.st0{fill:#11142D;}
	.st1{fill:#615DFF;}
	.st2{fill:#3DD9EB;}
	.st3{fill:#EBA408;}
	.st4{fill:#0376EF;}
	.st5{fill:#0A0A0A;}
</style>
<path class="st4" d="M19.7,24.3c-2.7,0-5.5,0-8.2,0c-1.7,0-2.7-1-2.7-2.6c0-5.3,0-10.6,0-16c0-2.1,0.8-3,3-3c5.3,0,10.5,0,15.8,0
	c0.6,0,1.2,0,1.8,0.4c0.8,0.5,1.2,1.3,1.2,2.2c0,5.5,0,11,0,16.6c0,1.6-1,2.5-2.6,2.5C25.3,24.3,22.5,24.3,19.7,24.3z M23.7,13.5
	c0.2-0.1,0.3-0.2,0.4-0.3c1.3-0.9,1.9-2.1,1.5-3.4c-0.3-1.3-1.4-1.7-2.6-1.9c-2.1-0.3-4.2-0.1-6.3-0.1c-0.5,0-0.4,0.3-0.4,0.6
	c-0.3,1.3-0.5,2.7-0.8,4c-0.5,2.1-0.7,4.3-1.4,6.4c-0.1,0.3-0.2,0.8,0.4,0.7c2.6-0.1,5.3,0.3,7.9-0.2c1.4-0.3,2.4-1.2,2.8-2.6
	C25.4,15.4,25.1,14.2,23.7,13.5z"/>
<path class="st5" d="M45.4,13.6c1.2,0.5,2,1.3,2.1,2.6c0.2,1.9-0.9,3.1-2.9,3.5c-1.5,0.3-3,0.1-4.5,0.2c-1,0-2.1,0-3.1,0
	c-0.4,0-0.5-0.1-0.5-0.5c0-3.6,0-7.3,0-10.9c0-0.2-0.1-0.5,0.4-0.5c2.5,0.1,5-0.3,7.5,0.2c2.1,0.4,3.1,2.1,2.5,3.9
	C46.5,12.7,46.1,13.2,45.4,13.6z M41.3,14.8C41.3,14.8,41.3,14.9,41.3,14.8c-0.7,0.1-1.5-0.2-1.9,0.2c-0.5,0.4-0.1,1.3-0.2,1.9
	c0,0.2,0,0.3,0,0.5c0,0.3,0.1,0.4,0.4,0.4c1.3-0.1,2.5,0.1,3.8-0.1c0.8-0.1,1.3-0.5,1.3-1.4c0-0.7-0.5-1.3-1.3-1.4
	C42.7,14.8,42,14.8,41.3,14.8z M41.1,10c-1.9,0-1.9,0-1.9,1.8c0,0.2,0,0.4,0,0.6c0,0.2,0,0.4,0.3,0.4c1.2,0,2.4,0.1,3.6-0.2
	c0.6-0.1,0.9-0.6,0.9-1.3c0-0.7-0.3-1-0.9-1.2C42.5,9.9,41.8,10,41.1,10z"/>
<path class="st5" d="M86.7,19.1c0,1.2,0,2.3,0,3.5c0,0.5-0.2,0.6-0.6,0.6c-2.1,0-2.1,0.1-2.1-2c0-3.3,0-6.5,0-9.8
	c0-0.6,0.1-0.9,0.8-0.8c0.3,0,0.6,0,0.9,0c0.6-0.1,1.1,0,0.9,1c1.3-1.1,2.6-1.3,4-1c1,0.2,1.8,0.7,2.4,1.5c1.4,1.7,1.4,4.5,0,6.3
	C91.6,20.2,89.4,20.4,86.7,19.1z M91.4,15.3c0-1.6-0.9-2.6-2.4-2.6c-1.4,0-2.3,1-2.3,2.5c0,1.5,0.9,2.6,2.3,2.6
	C90.4,17.8,91.4,16.8,91.4,15.3z"/>
<path class="st5" d="M79.1,18.9c-1.4,1.3-3,1.3-4.5,0.8c-1.2-0.4-1.9-1.5-1.8-2.6c0.1-1.2,0.7-2,2-2.4c1.1-0.4,2.3-0.3,3.5-0.3
	c0.7,0,0.7-0.3,0.5-0.8c-0.3-0.6-0.8-0.9-1.4-1c-1-0.1-1.9,0-2.7,0.5c-0.4,0.2-0.6,0.2-0.8-0.2c-0.8-1.4-0.7-1.5,0.8-2
	c1.5-0.5,3-0.6,4.5-0.1c1.5,0.5,2.3,1.5,2.5,3c0.2,1.8,0,3.7,0.1,5.5c0,0.4-0.1,0.6-0.5,0.5c-0.4,0-0.7,0-1.1,0
	C79.3,19.9,78.8,19.9,79.1,18.9z M77.7,16C77.7,16,77.7,16,77.7,16c-0.5,0-0.9,0-1.4,0.1c-0.5,0.1-0.8,0.3-0.9,0.9
	c0,0.5,0.2,0.9,0.7,1.1c0.7,0.3,1.8,0.1,2.3-0.4c0.4-0.4,0.6-0.9,0.5-1.4c-0.2-0.5-0.7-0.1-1-0.2C77.8,16,77.7,16,77.7,16z"/>
<path class="st5" d="M66.8,17.8c1.5,0,2.8,0,4.2,0c0.5,0,0.7,0.1,0.7,0.7c0,1.4,0,1.4-1.4,1.4c-1.9,0-3.8,0-5.7,0
	c-0.4,0-1,0.3-1.1-0.2c-0.1-0.6-0.2-1.2,0.3-1.8c1.4-1.5,2.7-3.1,4-4.7c0.1-0.1,0.2-0.2,0.4-0.5c-1.2,0-2.3,0-3.3,0
	c-0.4,0-1,0.2-1.2-0.1c-0.2-0.5-0.1-1.1-0.1-1.7c0-0.3,0.3-0.2,0.5-0.2c2.3,0,4.7,0,7,0c0.4,0,0.5,0.1,0.5,0.5
	c0,0.7-0.1,1.2-0.6,1.8C69.6,14.5,68.3,16.1,66.8,17.8z"/>
<path class="st5" d="M57.4,17.8c1.5,0,2.8,0,4.2,0c0.6,0,0.8,0.2,0.7,0.7c0,0,0,0.1,0,0.1c0,1.3,0,1.3-1.2,1.3c-1.9,0-3.9,0-5.8,0
	c-0.4,0-1,0.3-1.1-0.2c-0.1-0.6-0.2-1.3,0.3-1.8c1.2-1.4,2.4-2.8,3.6-4.2c0.2-0.3,0.5-0.6,0.8-1c-1.4,0-2.6,0-3.9,0
	c-0.5,0-0.7-0.1-0.7-0.7c0-1.4,0-1.4,1.4-1.4c1.8,0,3.5,0,5.3,0c0.4,0,1-0.3,1.1,0.2c0.1,0.6,0.3,1.3-0.3,1.9
	c-1.1,1.3-2.2,2.6-3.3,3.8C58.2,16.9,57.9,17.3,57.4,17.8z"/>
<path class="st5" d="M52.1,15.3c0,1.3,0,2.7,0,4c0,0.5-0.1,0.6-0.6,0.6c-2.1,0.1-2.1,0.1-2.1-2c0-2.2,0-4.3,0-6.5
	c0-0.6,0.2-0.8,0.8-0.8c1.9,0,1.9,0,1.9,1.9C52.1,13.5,52.1,14.4,52.1,15.3z"/>
<path class="st5" d="M52.5,7.9c0,0.9-0.8,1.5-1.7,1.5c-0.9,0-1.6-0.7-1.6-1.5c0-0.8,0.7-1.5,1.7-1.5C51.8,6.4,52.5,7,52.5,7.9z"/>
<path class="st4" d="M18.7,17.8c-0.6-0.1-1.6,0.3-2-0.2c-0.3-0.4,0.2-1.3,0.3-2c0.2-1.2,0.2-1.2,1.5-1.2c1,0,2.1,0,3.1,0.1
	c0.6,0,1.2,0.2,1.4,1c0.1,0.9-0.2,1.5-0.9,1.9C21,17.9,19.9,17.8,18.7,17.8z"/>
<path class="st4" d="M19.8,12.7c-2.3,0-2.3,0-1.8-2c0.3-1.3,0.3-1.3,1.6-1.3c0.7,0,1.5,0,2.2,0c0.9,0.1,1.5,0.5,1.6,1.2
	c0.1,0.8-0.5,1.5-1.3,1.8C21.3,12.8,20.4,12.7,19.8,12.7z"/>
</svg>
